<?xml version="1.0" encoding="UTF-8"?>
<svg xmlns="http://www.w3.org/2000/svg" xmlns:xlink="http://www.w3.org/1999/xlink" width="26px" height="26px" viewBox="0 0 25 26" version="1.1">
<g id="surface1">
<path style=" stroke:none;fill-rule:nonzero;fill:rgb(96.862745%,96.862745%,96.862745%);fill-opacity:1;" d="M 7.039062 6.101562 C 7.261719 5.417969 8.226562 5.417969 8.449219 6.101562 L 9.75 10.09375 C 9.851562 10.398438 10.136719 10.605469 10.457031 10.605469 L 14.664062 10.605469 C 15.382812 10.605469 15.679688 11.527344 15.097656 11.949219 L 11.699219 14.414062 C 11.4375 14.601562 11.328125 14.9375 11.429688 15.246094 L 12.726562 19.230469 C 12.953125 19.914062 12.167969 20.484375 11.585938 20.0625 L 8.179688 17.59375 C 7.917969 17.40625 7.566406 17.40625 7.308594 17.59375 L 3.902344 20.0625 C 3.320312 20.484375 2.535156 19.914062 2.757812 19.230469 L 4.058594 15.246094 C 4.160156 14.9375 4.050781 14.601562 3.789062 14.414062 L 0.390625 11.949219 C -0.195312 11.527344 0.105469 10.605469 0.824219 10.605469 L 5.03125 10.605469 C 5.351562 10.605469 5.636719 10.398438 5.738281 10.09375 Z M 7.039062 6.101562 "/>
</g>
</svg>
